<mxfile host="app.diagrams.net" modified="2020-09-27T13:00:37.896Z" agent="5.0 (Macintosh; Intel Mac OS X 10_15_5) AppleWebKit/605.1.15 (KHTML, like Gecko) Version/13.1.1 Safari/605.1.15" etag="sBQv7RtlZEkD3mr9LbZt" version="13.7.5" type="github">
  <diagram id="NzXpEdFFuoIxbyrC_7Z0" name="Fast ship">
    <mxGraphModel dx="338" dy="249" grid="1" gridSize="10" guides="1" tooltips="1" connect="1" arrows="1" fold="1" page="1" pageScale="1" pageWidth="827" pageHeight="1169" math="1" shadow="0">
      <root>
        <mxCell id="0" />
        <mxCell id="1" parent="0" />
        <mxCell id="RjcsMFj2n8ltg0jni-J6-4" value="" style="strokeWidth=2;html=1;shape=mxgraph.flowchart.start_2;whiteSpace=wrap;fillColor=#000000;" parent="1" vertex="1">
          <mxGeometry x="450" y="235" width="5" height="5" as="geometry" />
        </mxCell>
        <mxCell id="RjcsMFj2n8ltg0jni-J6-7" value="" style="verticalLabelPosition=bottom;verticalAlign=top;html=1;shape=mxgraph.basic.partConcEllipse;startAngle=0.2645753858378234;endAngle=0.5366696865991821;arcWidth=0.38;dashed=1;gradientDirection=south;fillColor=#D9D9D9;" parent="1" vertex="1">
          <mxGeometry x="220" y="30" width="350" height="350" as="geometry" />
        </mxCell>
        <mxCell id="RjcsMFj2n8ltg0jni-J6-12" style="rounded=0;orthogonalLoop=1;jettySize=auto;html=1;entryX=0.983;entryY=0.654;entryDx=0;entryDy=0;entryPerimeter=0;exitX=0;exitY=0.5;exitDx=0;exitDy=0;exitPerimeter=0;" parent="1" source="RjcsMFj2n8ltg0jni-J6-10" target="RjcsMFj2n8ltg0jni-J6-7" edge="1">
          <mxGeometry relative="1" as="geometry">
            <mxPoint x="471" y="240" as="targetPoint" />
            <mxPoint x="393" y="205" as="sourcePoint" />
          </mxGeometry>
        </mxCell>
        <mxCell id="RjcsMFj2n8ltg0jni-J6-13" style="edgeStyle=none;rounded=0;orthogonalLoop=1;jettySize=auto;html=1;entryX=0.657;entryY=0.761;entryDx=0;entryDy=0;entryPerimeter=0;exitX=0;exitY=0.5;exitDx=0;exitDy=0;exitPerimeter=0;" parent="1" source="RjcsMFj2n8ltg0jni-J6-10" target="RjcsMFj2n8ltg0jni-J6-7" edge="1">
          <mxGeometry relative="1" as="geometry">
            <mxPoint x="393" y="205" as="sourcePoint" />
          </mxGeometry>
        </mxCell>
        <mxCell id="RjcsMFj2n8ltg0jni-J6-15" value="&lt;span style=&quot;font-size: 12px ; background-color: rgb(248 , 249 , 250)&quot;&gt;`r^{min}`&lt;/span&gt;" style="edgeLabel;html=1;align=center;verticalAlign=middle;resizable=0;points=[];" parent="RjcsMFj2n8ltg0jni-J6-13" vertex="1" connectable="0">
          <mxGeometry x="-0.2021" relative="1" as="geometry">
            <mxPoint x="4.620000000000001" y="41.32" as="offset" />
          </mxGeometry>
        </mxCell>
        <mxCell id="-QkI8NY5SGLPdKWrgkNN-8" value="&lt;span style=&quot;font-size: 12px;&quot;&gt;`r^{max}`&lt;/span&gt;" style="edgeLabel;html=1;align=center;verticalAlign=middle;resizable=0;points=[];labelBackgroundColor=#D9D9D9;" vertex="1" connectable="0" parent="RjcsMFj2n8ltg0jni-J6-13">
          <mxGeometry x="-0.2021" relative="1" as="geometry">
            <mxPoint x="114.62" y="1.3200000000000038" as="offset" />
          </mxGeometry>
        </mxCell>
        <mxCell id="-QkI8NY5SGLPdKWrgkNN-14" value="&lt;span style=&quot;background-color: rgb(248 , 249 , 250)&quot;&gt;&lt;font style=&quot;font-size: 7px&quot;&gt;`\theta^{min}`&lt;/font&gt;&lt;/span&gt;" style="edgeLabel;html=1;align=center;verticalAlign=middle;resizable=0;points=[];" vertex="1" connectable="0" parent="RjcsMFj2n8ltg0jni-J6-13">
          <mxGeometry x="-0.2021" relative="1" as="geometry">
            <mxPoint x="66.62" y="-33.68" as="offset" />
          </mxGeometry>
        </mxCell>
        <mxCell id="-QkI8NY5SGLPdKWrgkNN-15" value="&lt;span style=&quot;background-color: rgb(248 , 249 , 250)&quot;&gt;&lt;font style=&quot;font-size: 7px&quot;&gt;`\theta^{max}`&lt;/font&gt;&lt;/span&gt;" style="edgeLabel;html=1;align=center;verticalAlign=middle;resizable=0;points=[];" vertex="1" connectable="0" parent="RjcsMFj2n8ltg0jni-J6-13">
          <mxGeometry x="-0.2021" relative="1" as="geometry">
            <mxPoint x="-15.379999999999995" y="1.3200000000000003" as="offset" />
          </mxGeometry>
        </mxCell>
        <mxCell id="RjcsMFj2n8ltg0jni-J6-16" value="Sol" style="text;html=1;align=center;verticalAlign=middle;resizable=0;points=[];autosize=1;" parent="1" vertex="1">
          <mxGeometry x="438" y="236" width="30" height="20" as="geometry" />
        </mxCell>
        <mxCell id="-QkI8NY5SGLPdKWrgkNN-1" style="rounded=0;orthogonalLoop=1;jettySize=auto;html=1;exitX=0;exitY=0.5;exitDx=0;exitDy=0;exitPerimeter=0;dashed=1;dashPattern=1 4;" edge="1" parent="1" source="RjcsMFj2n8ltg0jni-J6-10">
          <mxGeometry relative="1" as="geometry">
            <mxPoint x="690" y="201" as="targetPoint" />
            <mxPoint x="407.5" y="203.00462695199536" as="sourcePoint" />
          </mxGeometry>
        </mxCell>
        <mxCell id="-QkI8NY5SGLPdKWrgkNN-2" style="rounded=0;orthogonalLoop=1;jettySize=auto;html=1;exitX=0.272;exitY=1.076;exitDx=0;exitDy=0;exitPerimeter=0;dashed=1;dashPattern=1 4;" edge="1" parent="1" source="RjcsMFj2n8ltg0jni-J6-10">
          <mxGeometry relative="1" as="geometry">
            <mxPoint x="397" y="450" as="targetPoint" />
            <mxPoint x="406.775" y="204.27500000000003" as="sourcePoint" />
          </mxGeometry>
        </mxCell>
        <mxCell id="-QkI8NY5SGLPdKWrgkNN-4" style="rounded=0;orthogonalLoop=1;jettySize=auto;html=1;dashed=1;dashPattern=1 1;entryX=1.002;entryY=0.55;entryDx=0;entryDy=0;entryPerimeter=0;" edge="1" parent="1" source="RjcsMFj2n8ltg0jni-J6-10" target="RjcsMFj2n8ltg0jni-J6-7">
          <mxGeometry relative="1" as="geometry">
            <mxPoint x="640" y="204" as="targetPoint" />
            <mxPoint x="180" y="170" as="sourcePoint" />
          </mxGeometry>
        </mxCell>
        <mxCell id="-QkI8NY5SGLPdKWrgkNN-5" style="rounded=0;orthogonalLoop=1;jettySize=auto;html=1;dashed=1;dashPattern=1 1;entryX=0.384;entryY=0.986;entryDx=0;entryDy=0;entryPerimeter=0;exitX=0.5;exitY=0;exitDx=0;exitDy=0;exitPerimeter=0;" edge="1" parent="1" source="RjcsMFj2n8ltg0jni-J6-10" target="RjcsMFj2n8ltg0jni-J6-7">
          <mxGeometry relative="1" as="geometry">
            <mxPoint x="358" y="376" as="targetPoint" />
            <mxPoint x="440" y="10" as="sourcePoint" />
          </mxGeometry>
        </mxCell>
        <mxCell id="RjcsMFj2n8ltg0jni-J6-10" value="" style="strokeWidth=2;html=1;shape=mxgraph.flowchart.start_2;whiteSpace=wrap;fillColor=#000000;" parent="1" vertex="1">
          <mxGeometry x="392.5" y="198" width="5" height="5" as="geometry" />
        </mxCell>
        <mxCell id="-QkI8NY5SGLPdKWrgkNN-12" value="" style="curved=1;endArrow=openThin;html=1;strokeColor=#000000;fontSize=10;endFill=0;" edge="1" parent="1">
          <mxGeometry width="50" height="50" relative="1" as="geometry">
            <mxPoint x="460" y="198" as="sourcePoint" />
            <mxPoint x="460" y="210" as="targetPoint" />
            <Array as="points">
              <mxPoint x="460" y="210" />
            </Array>
          </mxGeometry>
        </mxCell>
        <mxCell id="-QkI8NY5SGLPdKWrgkNN-13" value="" style="curved=1;endArrow=openThin;html=1;strokeColor=#000000;fontSize=10;endFill=0;" edge="1" parent="1">
          <mxGeometry width="50" height="50" relative="1" as="geometry">
            <mxPoint x="428" y="198" as="sourcePoint" />
            <mxPoint x="388" y="230" as="targetPoint" />
            <Array as="points">
              <mxPoint x="420" y="230" />
            </Array>
          </mxGeometry>
        </mxCell>
      </root>
    </mxGraphModel>
  </diagram>
</mxfile>
